HIERARCHY
ROOT joint_Root
{
	OFFSET 0.0 0.0 0.0
	CHANNELS 6 Xposition Yposition Zposition Zrotation Xrotation Yrotation 
	JOINT Hips
	{
		OFFSET -17.1583 93.1646 452.98
		CHANNELS 6 Xposition Yposition Zposition Zrotation Xrotation Yrotation 
		JOINT Spine
		{
			OFFSET 15.7357 0.0 0.0
			CHANNELS 6 Xposition Yposition Zposition Zrotation Xrotation Yrotation 
			JOINT Chest
			{
				OFFSET 8.98455 -0.406207 0.0
				CHANNELS 6 Xposition Yposition Zposition Zrotation Xrotation Yrotation 
				JOINT Neck
				{
					OFFSET 16.3773 0.0 0.0
					CHANNELS 6 Xposition Yposition Zposition Zrotation Xrotation Yrotation 
					JOINT Head
					{
						OFFSET 6.45672 0.0 0.0
						CHANNELS 6 Xposition Yposition Zposition Zrotation Xrotation Yrotation 
						End Site
						{
							OFFSET 0.0 0.0 0.0
						}
					}
				}
				JOINT Shoulder_L
				{
					OFFSET 12.9942 -0.242716 4.98039
					CHANNELS 6 Xposition Yposition Zposition Zrotation Xrotation Yrotation 
					JOINT UpperArm_L
					{
						OFFSET 5.34809 0.0 0.0
						CHANNELS 6 Xposition Yposition Zposition Zrotation Xrotation Yrotation 
						JOINT LowerArm_L
						{
							OFFSET 24.3286 1.87007e-05 0.0
							CHANNELS 6 Xposition Yposition Zposition Zrotation Xrotation Yrotation 
							JOINT Hand_L
							{
								OFFSET 22.2916 0.0 0.0
								CHANNELS 6 Xposition Yposition Zposition Zrotation Xrotation Yrotation 
								End Site
								{
									OFFSET 0.0 0.0 0.0
								}
							}
						}
					}
				}
				JOINT Shoulder_R
				{
					OFFSET 12.9945 -0.242716 -4.98039
					CHANNELS 6 Xposition Yposition Zposition Zrotation Xrotation Yrotation 
					JOINT UpperArm_R
					{
						OFFSET -5.34813 0.0 0.0
						CHANNELS 6 Xposition Yposition Zposition Zrotation Xrotation Yrotation 
						JOINT LowerArm_R
						{
							OFFSET -24.3289 0.000322201 0.0
							CHANNELS 6 Xposition Yposition Zposition Zrotation Xrotation Yrotation 
							JOINT Hand_R
							{
								OFFSET -22.2915 -0.000108084 0.0
								CHANNELS 6 Xposition Yposition Zposition Zrotation Xrotation Yrotation 
								End Site
								{
									OFFSET 0.0 0.0 0.0
								}
							}
						}
					}
				}
			}
		}
		JOINT UpperLeg_L
		{
			OFFSET -2.19248 -6.46944 0.0
			CHANNELS 6 Xposition Yposition Zposition Zrotation Xrotation Yrotation 
			JOINT LowerLeg_L
			{
				OFFSET 39.0811 0.0 -1.23785e-05
				CHANNELS 6 Xposition Yposition Zposition Zrotation Xrotation Yrotation 
				JOINT Foot_L
				{
					OFFSET 40.9854 0.0 -1.26872e-05
					CHANNELS 6 Xposition Yposition Zposition Zrotation Xrotation Yrotation 
					JOINT Toes_L
					{
						OFFSET 11.7543 0.0 0.0
						CHANNELS 6 Xposition Yposition Zposition Zrotation Xrotation Yrotation 
						End Site
						{
							OFFSET 0.0 0.0 0.0
						}
					}
				}
			}
		}
		JOINT UpperLeg_R
		{
			OFFSET -2.19251 6.46944 0.0
			CHANNELS 6 Xposition Yposition Zposition Zrotation Xrotation Yrotation 
			JOINT LowerLeg_R
			{
				OFFSET -39.0811 -0.00228153 -0.0401928
				CHANNELS 6 Xposition Yposition Zposition Zrotation Xrotation Yrotation 
				JOINT Foot_R
				{
					OFFSET -40.9854 0.0 0.0
					CHANNELS 6 Xposition Yposition Zposition Zrotation Xrotation Yrotation 
					JOINT Toes_R
					{
						OFFSET -11.7543 0.0 0.0
						CHANNELS 6 Xposition Yposition Zposition Zrotation Xrotation Yrotation 
						End Site
						{
							OFFSET 0.0 0.0 0.0
						}
					}
				}
			}
		}
	}
}
MOTION
Frames:	4
Frame Time:	0.0333333
0.000000 0.000000 0.000000 0.000000 0.000000 -0.000000 149.087000 89.868600 209.253000 -79.052400 25.664800 176.029000 15.735700 0.000005 -0.000001 59.357500 86.688000 -54.563100 8.984550 -0.406207 -0.000000 -1.892080 -3.778720 9.527560 16.377300 -0.000001 -0.000001 2.362410 8.911780 -2.044880 6.456720 -0.000001 -0.000000 5.269590 14.973600 -3.697790 12.994200 -0.242716 4.980390 -92.430000 8.219630 -73.467900 5.348090 -0.000007 -0.000001 -77.697700 8.887040 -2.397930 24.328600 0.000019 0.000005 25.199300 31.649200 -41.885100 22.291600 -0.000001 0.000005 56.305800 4.569570 15.433100 12.994500 -0.242716 -4.980390 88.662000 3.852810 -70.831900 -5.348130 -0.000001 -0.000004 -67.536800 13.326200 -2.629550 -24.328900 0.000322 -0.000009 2.445500 11.134200 -12.479000 -22.291500 -0.000108 -0.000004 31.185500 5.383300 -2.402330 -2.192480 -6.469440 -0.000000 -172.114000 0.650669 -11.719000 39.081100 -0.000007 -0.000012 0.202474 -0.099565 63.813700 40.985400 -0.000006 -0.000013 -6.664350 3.018500 -32.351400 11.754300 -0.000000 0.000003 0.002132 0.052142 -14.461800 -2.192510 6.469440 -0.000001 -171.665000 -2.451480 164.739000 -39.081100 -0.002282 -0.040193 -0.033071 0.054781 33.577500 -40.985400 0.000008 0.000006 -6.753340 -2.251440 -72.915300 -11.754300 -0.000006 -0.000006 -0.011095 0.279315 -5.223240
0.000000 0.000000 0.000000 0.000000 0.000000 -0.000000 150.615000 90.633200 206.174000 -81.118500 23.883100 177.832000 15.735700 0.000005 -0.000001 67.150600 86.709700 -63.147100 8.984550 -0.406207 -0.000000 -1.589160 -2.881150 7.966320 16.377300 -0.000001 -0.000001 2.399350 8.264730 -1.747670 6.456720 -0.000001 -0.000000 5.374650 13.453600 -3.226610 12.994200 -0.242716 4.980390 -92.223100 7.493260 -73.423100 5.348090 -0.000007 -0.000001 -77.751800 7.344170 -0.708474 24.328600 0.000019 0.000005 20.784200 33.624500 -34.426900 22.291600 -0.000001 0.000005 55.717200 4.592790 15.038400 12.994500 -0.242716 -4.980390 88.679500 3.876170 -71.170900 -5.348130 -0.000001 -0.000004 -67.849500 15.453600 -6.430170 -24.328900 0.000322 -0.000009 1.986440 7.273560 -15.335000 -22.291500 -0.000108 -0.000004 31.806000 5.388210 -2.558130 -2.192480 -6.469440 -0.000000 -174.318000 1.622950 -16.106700 39.081100 -0.000007 -0.000012 0.166543 -0.076751 65.255900 40.985400 -0.000006 -0.000013 -6.496140 1.448490 -39.211500 11.754300 -0.000000 0.000003 0.001923 0.043877 -14.796900 -2.192510 6.469440 -0.000001 -173.281000 -0.932419 169.607000 -39.081100 -0.002282 -0.040193 -0.031131 0.058331 30.552800 -40.985400 0.000008 0.000006 -6.868730 -2.567300 -73.400100 -11.754300 -0.000006 -0.000006 -0.009905 0.270594 -5.580080
0.000000 0.000000 0.000000 0.000000 0.000000 -0.000000 151.970000 91.377500 203.313000 -83.009300 21.836400 178.704000 15.735700 0.000005 -0.000001 71.959500 86.884500 -68.668200 8.984550 -0.406207 -0.000000 -1.770050 -2.202840 6.547750 16.377300 -0.000001 -0.000001 2.536520 7.510020 -1.847720 6.456720 -0.000001 -0.000000 5.469530 12.012400 -2.717280 12.994200 -0.242716 4.980390 -92.097500 6.940110 -73.137900 5.348090 -0.000007 -0.000001 -76.959800 3.386170 1.787140 24.328600 0.000019 0.000005 17.075600 32.574400 -29.705700 22.291600 -0.000001 0.000005 55.617600 4.540850 15.919500 12.994500 -0.242716 -4.980390 88.731300 3.762430 -71.350600 -5.348130 -0.000001 -0.000004 -68.282900 15.416300 -9.178870 -24.328900 0.000322 -0.000009 1.592170 4.368790 -20.068700 -22.291500 -0.000108 -0.000004 32.221500 5.389440 -2.597390 -2.192480 -6.469440 -0.000000 -176.488000 3.140460 -20.320600 39.081100 -0.000007 -0.000012 0.085115 -0.042330 63.554900 40.985400 -0.000006 -0.000013 -4.760600 1.291740 -46.764600 11.754300 -0.000000 0.000003 0.002184 0.054542 -14.364400 -2.192510 6.469440 -0.000001 -174.884000 0.565667 173.641000 -39.081100 -0.002282 -0.040193 -0.025694 0.056688 27.094400 -40.985400 0.000008 0.000006 -7.308030 -2.899980 -72.938800 -11.754300 -0.000006 -0.000006 -0.008161 0.257010 -6.135270
0.000000 0.000000 0.000000 0.000000 0.000000 -0.000000 153.183000 92.045600 200.604000 -84.387800 20.205700 178.792000 15.735700 0.000005 -0.000001 79.927200 87.191600 -77.148900 8.984550 -0.406207 -0.000000 -2.200360 -1.223540 5.532770 16.377300 -0.000001 -0.000001 2.704510 6.865380 -2.004420 6.456720 -0.000001 -0.000000 5.585240 10.379800 -2.683520 12.994200 -0.242716 4.980390 -92.116800 6.747040 -72.536400 5.348090 -0.000007 -0.000001 -74.967900 -2.368350 4.287350 24.328600 0.000019 0.000005 14.706400 30.480900 -27.358100 22.291600 -0.000001 0.000005 55.606700 4.518940 16.285700 12.994500 -0.242716 -4.980390 88.706000 3.898570 -71.622500 -5.348130 -0.000001 -0.000004 -68.683200 13.610000 -10.667200 -24.328900 0.000322 -0.000009 1.339490 2.700670 -26.416600 -22.291500 -0.000108 -0.000004 32.658400 5.390720 -2.638050 -2.192480 -6.469440 -0.000000 -177.959000 4.266000 -23.650400 39.081100 -0.000007 -0.000012 0.045470 -0.028167 58.219000 40.985400 -0.000006 -0.000013 -4.205360 0.210739 -52.428300 11.754300 -0.000000 0.000003 0.002450 0.073552 -13.593700 -2.192510 6.469440 -0.000001 -176.157000 2.543300 176.824000 -39.081100 -0.002282 -0.040193 -0.017177 0.046521 23.772600 -40.985400 0.000008 0.000006 -7.341260 -2.656580 -71.583700 -11.754300 -0.000006 -0.000006 -0.005975 0.238277 -6.899860
